<svg width="254" height="100" viewBox="0 0 254 100" fill="none" xmlns="http://www.w3.org/2000/svg">
<path fill-rule="evenodd" clip-rule="evenodd" d="M85.0816 17.8262H40.5C23.6553 17.8262 10 31.4815 10 48.3262C10 65.1709 23.6553 78.8262 40.5 78.8262H85.0816V77.8262H40.5C24.2076 77.8262 11 64.6186 11 48.3262C11 32.0338 24.2076 18.8262 40.5 18.8262H85.0816V17.8262ZM170.531 77.8262H213.5C229.792 77.8262 243 64.6186 243 48.3262C243 32.0338 229.792 18.8262 213.5 18.8262H170.531V17.8262H213.5L214.287 17.8359C230.768 18.2534 244 31.7446 244 48.3262C244 64.9077 230.768 78.3989 214.287 78.8164L213.5 78.8262H170.531V77.8262Z" fill="#0C0B10"/>
<rect y="26.8262" width="254" height="55" rx="27.5" fill="#0C0B10"/>
<path d="M126.267 0.826172L123.885 5.34017L121.58 9.85418C123.232 13.0236 124.692 15.7704 126.325 18.8822L131.069 9.85418L128.63 5.34017L126.267 0.826172Z" fill="#0C0B10"/>
<path d="M150.438 16.212L150.207 16.0775L149.977 15.9238L149.727 15.7894L149.497 15.6357L149.247 15.5012L149.016 15.3668L148.786 15.2323L148.536 15.0979L148.287 14.9634L148.056 14.8482L147.806 14.7137L147.557 14.5792L147.326 14.4448L147.076 14.3295L146.827 14.1951L146.577 14.0798L146.327 13.9646L146.078 13.8493L145.828 13.7149L145.693 13.6572L143.484 18.4786L143.58 18.517L143.811 18.613L144.022 18.7283L144.253 18.8435L144.464 18.9396L144.675 19.0548L144.906 19.1701L145.117 19.2853L145.328 19.3814L145.54 19.4966L145.77 19.6311L145.981 19.7463L146.193 19.8616L146.404 19.9768L146.615 20.0921L146.827 20.2265L147.038 20.3418L147.249 20.457L147.461 20.5915L147.672 20.726L147.864 20.8412L150.63 16.3272L150.438 16.212Z" fill="#0C0B10"/>
<path d="M140.119 11.506L139.85 11.4292L139.581 11.3524L139.312 11.2563L139.043 11.1795L138.774 11.1219L138.486 11.045L138.217 10.9682L137.948 10.8914L137.68 10.8337L137.391 10.7569L137.123 10.6801L136.854 10.6225L136.565 10.5648L136.297 10.5072L136.008 10.4304L135.739 10.3727L135.451 10.3343L135.182 10.2767L135.029 10.2383L134.068 15.4438L134.184 15.463L134.433 15.5206L134.683 15.559L134.914 15.6167L135.163 15.6743L135.413 15.7319L135.663 15.7895L135.893 15.8472L136.143 15.8856L136.393 15.9624L136.623 16.02L136.873 16.0777L137.123 16.1545L137.353 16.2121L137.584 16.2698L137.833 16.3466L138.064 16.4234L138.313 16.481L138.544 16.5579L138.794 16.6347L138.89 16.6731L140.484 11.6213L140.388 11.6021L140.119 11.506Z" fill="#0C0B10"/>
<path d="M117.504 10.2194L117.216 10.277L116.928 10.3347L116.659 10.3731L116.371 10.4307L116.102 10.5075L115.814 10.5652L115.545 10.6228L115.257 10.6804L114.988 10.7572L114.719 10.8341L114.45 10.8917L114.162 10.9685L113.893 11.0454L113.624 11.1222L113.355 11.1798L113.086 11.2567L112.817 11.3527L112.529 11.4295L112.279 11.5064L112.164 11.5448L113.758 16.5966L113.835 16.5582L114.085 16.4814L114.315 16.4238L114.546 16.3469L114.796 16.2701L115.045 16.2125L115.276 16.1548L115.526 16.078L115.756 16.0204L116.006 15.9628L116.236 15.8859L116.486 15.8475L116.736 15.7899L116.985 15.7322L117.216 15.6746L117.466 15.617L117.715 15.5594L117.965 15.521L118.215 15.4633L118.445 15.4249L118.58 15.4057L117.619 10.2002L117.504 10.2194Z" fill="#0C0B10"/>
<path d="M106.841 13.5999L106.591 13.7152L106.341 13.8497L106.091 13.9649L105.842 14.0802L105.592 14.1954L105.342 14.3299L105.093 14.4451L104.843 14.5796L104.612 14.714L104.363 14.8485L104.113 14.9637L103.882 15.0982L103.633 15.2327L103.402 15.3671L103.153 15.5016L102.922 15.636L102.672 15.7897L102.442 15.9242L102.211 16.0778L102 16.1931L104.785 20.7071L104.958 20.5918L105.169 20.4574L105.361 20.3421L105.573 20.2269L105.784 20.0924L105.995 19.9772L106.226 19.8619L106.437 19.7467L106.648 19.6314L106.86 19.497L107.071 19.3817L107.282 19.2857L107.513 19.1704L107.724 19.0552L107.935 18.9399L108.166 18.8439L108.377 18.7286L108.608 18.6134L108.819 18.5173L109.05 18.4213L109.165 18.3637L106.956 13.5615L106.841 13.5999Z" fill="#0C0B10"/>
<path d="M126.921 99.583L125.164 96.2525L123.463 92.922C124.682 90.5835 125.759 88.5569 126.964 86.261L130.464 92.922L128.664 96.2525L126.921 99.583Z" fill="#0C0B10"/>
<path d="M144.566 88.2313L144.396 88.3305L144.226 88.4439L144.041 88.5431L143.871 88.6565L143.687 88.7557L143.517 88.8549L143.347 88.9541L143.163 89.0533L142.978 89.1525L142.808 89.2375L142.624 89.3367L142.44 89.4359L142.27 89.5351L142.086 89.6202L141.901 89.7194L141.717 89.8044L141.533 89.8895L141.349 89.9745L141.164 90.0737L141.065 90.1162L139.435 86.5589L139.506 86.5306L139.676 86.4597L139.832 86.3747L140.002 86.2897L140.158 86.2188L140.314 86.1338L140.484 86.0487L140.64 85.9637L140.796 85.8928L140.952 85.8078L141.122 85.7086L141.278 85.6236L141.434 85.5385L141.59 85.4535L141.745 85.3685L141.901 85.2693L142.057 85.1842L142.213 85.0992L142.369 85L142.525 84.9008L142.667 84.8157L144.707 88.1462L144.566 88.2313Z" fill="#0C0B10"/>
<path d="M136.942 91.7033L136.743 91.76L136.545 91.8167L136.346 91.8875L136.148 91.9442L135.95 91.9867L135.737 92.0434L135.539 92.1001L135.34 92.1568L135.142 92.1993L134.929 92.256L134.731 92.3127L134.532 92.3552L134.32 92.3977L134.121 92.4403L133.909 92.4969L133.71 92.5395L133.498 92.5678L133.299 92.6103L133.186 92.6387L132.477 88.798L132.562 88.7838L132.747 88.7413L132.931 88.7129L133.101 88.6704L133.285 88.6279L133.469 88.5854L133.654 88.5429L133.824 88.5003L134.008 88.472L134.192 88.4153L134.362 88.3728L134.546 88.3303L134.731 88.2736L134.901 88.2311L135.071 88.1885L135.255 88.1319L135.425 88.0752L135.609 88.0326L135.779 87.976L135.964 87.9193L136.035 87.8909L137.211 91.6183L137.14 91.6324L136.942 91.7033Z" fill="#0C0B10"/>
<path d="M120.756 92.6528L120.544 92.6103L120.331 92.5678L120.133 92.5394L119.92 92.4969L119.722 92.4402L119.509 92.3977L119.311 92.3552L119.098 92.3127L118.9 92.256L118.701 92.1993L118.503 92.1568L118.29 92.1001L118.092 92.0434L117.894 91.9867L117.695 91.9442L117.497 91.8875L117.298 91.8166L117.086 91.76L116.901 91.7033L116.816 91.6749L117.993 87.9476L118.049 87.9759L118.234 88.0326L118.404 88.0751L118.574 88.1318L118.758 88.1885L118.942 88.231L119.112 88.2736L119.297 88.3302L119.467 88.3728L119.651 88.4153L119.821 88.472L120.005 88.5003L120.189 88.5428L120.374 88.5853L120.544 88.6279L120.728 88.6704L120.912 88.7129L121.096 88.7412L121.281 88.7838L121.451 88.8121L121.55 88.8263L120.841 92.667L120.756 92.6528Z" fill="#0C0B10"/>
<path d="M112.862 90.1582L112.678 90.0731L112.494 89.9739L112.31 89.8889L112.125 89.8039L111.941 89.7188L111.757 89.6196L111.573 89.5346L111.389 89.4354L111.218 89.3362L111.034 89.237L110.85 89.1519L110.68 89.0527L110.496 88.9535L110.326 88.8543L110.141 88.7551L109.971 88.6559L109.787 88.5425L109.617 88.4433L109.447 88.3299L109.291 88.2449L111.346 84.9144L111.474 84.9994L111.629 85.0986L111.771 85.1837L111.927 85.2687L112.083 85.3679L112.239 85.4529L112.409 85.538L112.565 85.623L112.721 85.7081L112.877 85.8073L113.033 85.8923L113.188 85.9632L113.358 86.0482L113.514 86.1332L113.67 86.2183L113.84 86.2891L113.996 86.3742L114.166 86.4592L114.322 86.53L114.492 86.6009L114.577 86.6434L112.947 90.1865L112.862 90.1582Z" fill="#0C0B10"/>
</svg>
