<svg width="156" height="57" viewBox="0 0 156 57" fill="none" xmlns="http://www.w3.org/2000/svg">
<path fill-rule="evenodd" clip-rule="evenodd" d="M61 8H20C8.95431 8 0 16.9543 0 28C0 38.873 8.67646 47.7192 19.4834 47.9932L20 48H61V47H20C9.50659 47 1 38.4934 1 28C1 17.5066 9.50659 9 20 9H61V8ZM95 47H136C146.493 47 155 38.4934 155 28C155 17.5066 146.493 9 136 9H95V8H136C147.046 8 156 16.9543 156 28C156 39.0457 147.046 48 136 48H95V47Z" fill="white"/>
<path d="M77.9509 0.416992L76.8592 2.4859L75.8027 4.55481C76.5599 6.00745 77.229 7.2664 77.9773 8.69263L80.1518 4.55481L79.0338 2.4859L77.9509 0.416992Z" fill="white"/>
<path d="M88.9116 7.46877L88.806 7.40714L88.7003 7.33671L88.5859 7.27508L88.4802 7.20465L88.3658 7.14302L88.2601 7.0814L88.1545 7.01977L88.04 6.95814L87.9256 6.89651L87.8199 6.84369L87.7055 6.78206L87.591 6.72044L87.4854 6.65881L87.3709 6.60599L87.2565 6.54436L87.142 6.49154L87.0276 6.43871L86.9131 6.38589L86.7987 6.32426L86.7371 6.29785L85.7246 8.50762L85.7686 8.52523L85.8743 8.56925L85.9711 8.62207L86.0768 8.6749L86.1736 8.71892L86.2704 8.77174L86.3761 8.82456L86.4729 8.87738L86.5698 8.9214L86.6666 8.97423L86.7723 9.03585L86.8691 9.08868L86.966 9.1415L87.0628 9.19432L87.1596 9.24715L87.2565 9.30877L87.3533 9.3616L87.4502 9.41442L87.547 9.47605L87.6439 9.53767L87.7319 9.5905L88.9996 7.52159L88.9116 7.46877Z" fill="white"/>
<path d="M84.1756 5.31152L84.0523 5.27631L83.9291 5.24109L83.8058 5.19707L83.6825 5.16186L83.5593 5.13545L83.4272 5.10023L83.304 5.06502L83.1807 5.0298L83.0575 5.00339L82.9254 4.96817L82.8022 4.93296L82.6789 4.90655L82.5468 4.88013L82.4236 4.85372L82.2915 4.81851L82.1683 4.7921L82.0362 4.77449L81.913 4.74808L81.8425 4.73047L81.4023 7.11632L81.4552 7.12512L81.5696 7.15153L81.6841 7.16914L81.7897 7.19555L81.9042 7.22196L82.0186 7.24837L82.1331 7.27479L82.2387 7.3012L82.3532 7.31881L82.4676 7.35402L82.5733 7.38043L82.6877 7.40684L82.8022 7.44206L82.9078 7.46847L83.0135 7.49488L83.1279 7.5301L83.2335 7.56531L83.348 7.59172L83.4536 7.62694L83.5681 7.66216L83.6121 7.67976L84.3428 5.36435L84.2988 5.35554L84.1756 5.31152Z" fill="white"/>
<path d="M74.1233 4.72169L73.9912 4.74811L73.8591 4.77452L73.7359 4.79213L73.6038 4.81854L73.4806 4.85375L73.3485 4.88016L73.2253 4.90658L73.0932 4.93299L72.9699 4.9682L72.8467 5.00342L72.7234 5.02983L72.5914 5.06505L72.4681 5.10026L72.3449 5.13548L72.2216 5.16189L72.0984 5.1971L71.9751 5.24112L71.8431 5.27634L71.7286 5.31155L71.6758 5.32916L72.4065 7.64458L72.4417 7.62697L72.5562 7.59175L72.6618 7.56534L72.7675 7.53013L72.8819 7.49491L72.9964 7.4685L73.102 7.44209L73.2165 7.40687L73.3221 7.38046L73.4366 7.35405L73.5422 7.31884L73.6567 7.30123L73.7711 7.27482L73.8856 7.2484L73.9912 7.22199L74.1056 7.19558L74.2201 7.16917L74.3345 7.15156L74.449 7.12515L74.5546 7.10754L74.6163 7.09874L74.1761 4.71289L74.1233 4.72169Z" fill="white"/>
<path d="M69.2186 6.27151L69.1041 6.32434L68.9897 6.38596L68.8752 6.43879L68.7608 6.49161L68.6463 6.54443L68.5319 6.60606L68.4174 6.65888L68.303 6.72051L68.1973 6.78214L68.0829 6.84377L67.9684 6.89659L67.8628 6.95822L67.7483 7.01984L67.6427 7.08147L67.5282 7.1431L67.4226 7.20472L67.3081 7.27515L67.2025 7.33678L67.0968 7.40721L67 7.46004L68.2766 9.52894L68.3558 9.47612L68.4526 9.41449L68.5407 9.36167L68.6375 9.30885L68.7344 9.24722L68.8312 9.1944L68.9369 9.14157L69.0337 9.08875L69.1305 9.03593L69.2274 8.9743L69.3242 8.92148L69.4211 8.87746L69.5267 8.82464L69.6236 8.77181L69.7204 8.71899L69.826 8.67497L69.9229 8.62215L70.0285 8.56932L70.1254 8.5253L70.231 8.48128L70.2838 8.45487L69.2714 6.25391L69.2186 6.27151Z" fill="white"/>
<path d="M77.9509 56.1738L76.8592 54.1049L75.8027 52.036C76.5599 50.5834 77.229 49.3244 77.9773 47.8982L80.1518 52.036L79.0338 54.1049L77.9509 56.1738Z" fill="white"/>
<path d="M88.9116 49.1221L88.806 49.1837L88.7003 49.2541L88.5859 49.3157L88.4802 49.3862L88.3658 49.4478L88.2601 49.5094L88.1545 49.5711L88.04 49.6327L87.9256 49.6943L87.8199 49.7471L87.7055 49.8088L87.591 49.8704L87.4854 49.932L87.3709 49.9848L87.2565 50.0465L87.142 50.0993L87.0276 50.1521L86.9131 50.2049L86.7987 50.2666L86.7371 50.293L85.7246 48.0832L85.7686 48.0656L85.8743 48.0216L85.9711 47.9687L86.0768 47.9159L86.1736 47.8719L86.2704 47.8191L86.3761 47.7663L86.4729 47.7134L86.5698 47.6694L86.6666 47.6166L86.7723 47.555L86.8691 47.5021L86.966 47.4493L87.0628 47.3965L87.1596 47.3437L87.2565 47.282L87.3533 47.2292L87.4502 47.1764L87.547 47.1148L87.6439 47.0531L87.7319 47.0003L88.9996 49.0692L88.9116 49.1221Z" fill="white"/>
<path d="M84.1756 51.2793L84.0523 51.3145L83.9291 51.3497L83.8058 51.3937L83.6825 51.429L83.5593 51.4554L83.4272 51.4906L83.304 51.5258L83.1807 51.561L83.0575 51.5874L82.9254 51.6226L82.8022 51.6579L82.6789 51.6843L82.5468 51.7107L82.4236 51.7371L82.2915 51.7723L82.1683 51.7987L82.0362 51.8163L81.913 51.8427L81.8425 51.8604L81.4023 49.4745L81.4552 49.4657L81.5696 49.4393L81.6841 49.4217L81.7897 49.3953L81.9042 49.3689L82.0186 49.3424L82.1331 49.316L82.2387 49.2896L82.3532 49.272L82.4676 49.2368L82.5733 49.2104L82.6877 49.184L82.8022 49.1488L82.9078 49.1223L83.0135 49.0959L83.1279 49.0607L83.2335 49.0255L83.348 48.9991L83.4536 48.9639L83.5681 48.9287L83.6121 48.9111L84.3428 51.2265L84.2988 51.2353L84.1756 51.2793Z" fill="white"/>
<path d="M74.1233 51.8691L73.9912 51.8427L73.8591 51.8163L73.7359 51.7987L73.6038 51.7723L73.4806 51.7371L73.3485 51.7107L73.2253 51.6842L73.0932 51.6578L72.9699 51.6226L72.8467 51.5874L72.7234 51.561L72.5914 51.5258L72.4681 51.4906L72.3449 51.4553L72.2216 51.4289L72.0984 51.3937L71.9751 51.3497L71.8431 51.3145L71.7286 51.2793L71.6758 51.2617L72.4065 48.9462L72.4417 48.9639L72.5562 48.9991L72.6618 49.0255L72.7675 49.0607L72.8819 49.0959L72.9964 49.1223L73.102 49.1487L73.2165 49.1839L73.3221 49.2104L73.4366 49.2368L73.5422 49.272L73.6567 49.2896L73.7711 49.316L73.8856 49.3424L73.9912 49.3688L74.1056 49.3952L74.2201 49.4217L74.3345 49.4393L74.449 49.4657L74.5546 49.4833L74.6163 49.4921L74.1761 51.8779L74.1233 51.8691Z" fill="white"/>
<path d="M69.2186 50.3193L69.1041 50.2665L68.9897 50.2049L68.8752 50.152L68.7608 50.0992L68.6463 50.0464L68.5319 49.9848L68.4174 49.9319L68.303 49.8703L68.1973 49.8087L68.0829 49.7471L67.9684 49.6942L67.8628 49.6326L67.7483 49.571L67.6427 49.5094L67.5282 49.4477L67.4226 49.3861L67.3081 49.3157L67.2025 49.254L67.0968 49.1836L67 49.1308L68.2766 47.0619L68.3558 47.1147L68.4526 47.1763L68.5407 47.2291L68.6375 47.282L68.7344 47.3436L68.8312 47.3964L68.9369 47.4492L69.0337 47.5021L69.1305 47.5549L69.2274 47.6165L69.3242 47.6693L69.4211 47.7134L69.5267 47.7662L69.6236 47.819L69.7204 47.8718L69.826 47.9159L69.9229 47.9687L70.0285 48.0215L70.1254 48.0655L70.231 48.1095L70.2838 48.1359L69.2714 50.3369L69.2186 50.3193Z" fill="white"/>
</svg>
