<svg width="52" height="52" viewBox="0 0 52 52" fill="none" xmlns="http://www.w3.org/2000/svg">
<path d="M11.8125 41.6249H3.93749C2.3125 41.6249 1 40.3124 1 38.6874V13.5" stroke="#79655E" stroke-width="2" stroke-miterlimit="10" stroke-linecap="round" stroke-linejoin="round"/>
<path d="M51 13.5V38.6874C51 40.3124 49.6875 41.6249 48.0625 41.6249H40.1875" stroke="#79655E" stroke-width="2" stroke-miterlimit="10" stroke-linecap="round" stroke-linejoin="round"/>
<path d="M9.24998 19H5.18749C2.875 19 1 17.125 1 14.8125V12.875C1 10.375 3.0625 8.3125 5.56249 8.3125H13.5625H39.1874H46.3749C48.8749 8.3125 50.9374 10.375 50.9374 12.875V14.8125C50.9374 17.125 49.0624 19 46.7499 19H42.9374" stroke="#79655E" stroke-width="2" stroke-miterlimit="10" stroke-linecap="round" stroke-linejoin="round"/>
<path d="M38.9997 19H13.2498" stroke="#79655E" stroke-width="2" stroke-miterlimit="10" stroke-linecap="round" stroke-linejoin="round"/>
<path d="M11.2501 22.75C10.1251 22.75 9.25012 21.875 9.25012 20.75V17.1875C9.25012 16.5625 9.75012 16.0625 10.3751 16.0625H12.1876C12.8126 16.0625 13.3126 16.5625 13.3126 17.1875V20.75C13.2501 21.8125 12.3751 22.75 11.2501 22.75Z" stroke="#79655E" stroke-width="2" stroke-miterlimit="10" stroke-linecap="round" stroke-linejoin="round"/>
<path d="M40.9998 22.75C39.8748 22.75 38.9998 21.875 38.9998 20.75V17.1875C38.9998 16.5625 39.4998 16.0625 40.1248 16.0625H41.9372C42.5622 16.0625 43.0622 16.5625 43.0622 17.1875V20.75C42.9997 21.8125 42.1247 22.75 40.9998 22.75Z" stroke="#79655E" stroke-width="2" stroke-miterlimit="10" stroke-linecap="round" stroke-linejoin="round"/>
<path d="M31.6252 8.31249V5.4375C31.6252 4.8125 31.1252 4.25 30.4377 4.25H22.4377C21.8127 4.25 21.2502 4.75 21.2502 5.4375V8.31249" stroke="#79655E" stroke-width="2" stroke-miterlimit="10" stroke-linecap="round" stroke-linejoin="round"/>
<path d="M18.0001 8.31248V5.43749C18.0001 3 20.0001 1 22.4376 1H30.4376C32.8751 1 34.8751 3 34.8751 5.43749V8.31248" stroke="#79655E" stroke-width="2" stroke-miterlimit="10" stroke-linecap="round" stroke-linejoin="round"/>
<path d="M24.9375 42.375C24.25 42.375 23.6875 41.8125 23.6875 41.125V38.75H21.3125C20.625 38.75 20.0625 38.1875 20.0625 37.5V35.375C20.0625 34.6875 20.625 34.125 21.3125 34.125H23.6875V31.75C23.6875 31.0625 24.25 30.5 24.9375 30.5H27.0625C27.75 30.5 28.3125 31.0625 28.3125 31.75V34.125H30.6875C31.375 34.125 31.9375 34.6875 31.9375 35.375V37.5C31.9375 38.1875 31.375 38.75 30.6875 38.75H28.3125V41.125C28.3125 41.8125 27.75 42.375 27.0625 42.375H24.9375Z" stroke="#79655E" stroke-width="2" stroke-miterlimit="10" stroke-linecap="round" stroke-linejoin="round"/>
<path d="M26 22.25C26 22.25 20 26.875 15.0625 26.875V38.625C15.0625 41.0625 16.0625 43.2499 17.75 44.4999C19.5 45.8124 24.6875 49.2499 24.9375 49.3749L26.0625 50.1249L27.1875 49.3749C27.4375 49.2499 32.625 45.8124 34.375 44.4999C36.0624 43.2499 37.0624 41.0625 37.0624 38.625V26.9375C32 26.9375 26 22.25 26 22.25Z" stroke="#79655E" stroke-width="2" stroke-miterlimit="10" stroke-linecap="round" stroke-linejoin="round"/>
</svg>
