<svg width="43" height="62" viewBox="0 0 43 62" fill="none" xmlns="http://www.w3.org/2000/svg">
<path d="M32.8201 5.82022V4.48118C32.8201 2.5284 31.8064 1.18935 30.3984 1.02197" stroke="#79655E" stroke-width="2" stroke-miterlimit="10" stroke-linecap="round" stroke-linejoin="round"/>
<path d="M30.3985 1.02189C30.1169 0.966094 29.779 1.02189 29.441 1.13348L23.6965 2.75149" stroke="#79655E" stroke-width="2" stroke-miterlimit="10" stroke-linecap="round" stroke-linejoin="round"/>
<path d="M23.6964 2.75146L1 9.00035V61" stroke="#79655E" stroke-width="2" stroke-miterlimit="10" stroke-linecap="round" stroke-linejoin="round"/>
<path d="M1 60.9997H37.6635C40.0288 60.9997 42 59.1027 42 56.7036V13.2962C42 11.3434 40.7047 9.72542 38.9025 9.16748" stroke="#79655E" stroke-width="2" stroke-miterlimit="10" stroke-linecap="round" stroke-linejoin="round"/>
<path d="M38.9026 9.16738C38.5083 9.05579 38.1141 9 37.6636 9H30.2295" stroke="#79655E" stroke-width="2" stroke-miterlimit="10" stroke-linecap="round" stroke-linejoin="round"/>
<path d="M30.2294 9H1V60.9996" stroke="#79655E" stroke-width="2" stroke-miterlimit="10" stroke-linecap="round" stroke-linejoin="round"/>
<path d="M17.7847 26.1463L16.9885 33.8613L28.0816 34.9848L28.8778 27.2698L17.7847 26.1463Z" stroke="#79655E" stroke-width="2" stroke-miterlimit="10" stroke-linecap="round" stroke-linejoin="round"/>
<path d="M19.191 47.7767C21.9903 47.7767 24.2597 45.5286 24.2597 42.7553C24.2597 39.9821 21.9903 37.7339 19.191 37.7339C16.3916 37.7339 14.1223 39.9821 14.1223 42.7553C14.1223 45.5286 16.3916 47.7767 19.191 47.7767Z" stroke="#79655E" stroke-width="2" stroke-miterlimit="10" stroke-linecap="round" stroke-linejoin="round"/>
</svg>
