<svg width="16" height="16" viewBox="0 0 16 16" fill="none" xmlns="http://www.w3.org/2000/svg">
<path d="M4.78633 9.2646C5.22686 9.2646 5.58398 8.91212 5.58398 8.47731C5.58398 8.04251 5.22686 7.69003 4.78633 7.69003C4.34581 7.69003 3.98869 8.04251 3.98869 8.47731C3.98869 8.91212 4.34581 9.2646 4.78633 9.2646Z" fill="#79655E"/>
<path d="M8.77454 8.47731C8.77454 8.91212 8.41742 9.2646 7.9769 9.2646C7.53637 9.2646 7.17926 8.91212 7.17926 8.47731C7.17926 8.04251 7.53637 7.69003 7.9769 7.69003C8.41742 7.69003 8.77454 8.04251 8.77454 8.47731Z" fill="#79655E"/>
<path d="M11.1675 9.2646C11.608 9.2646 11.9651 8.91212 11.9651 8.47731C11.9651 8.04251 11.608 7.69003 11.1675 7.69003C10.7269 7.69003 10.3698 8.04251 10.3698 8.47731C10.3698 8.91212 10.7269 9.2646 11.1675 9.2646Z" fill="#79655E"/>
<path d="M5.58398 11.6264C5.58398 12.0612 5.22686 12.4137 4.78633 12.4137C4.34581 12.4137 3.98869 12.0612 3.98869 11.6264C3.98869 11.1916 4.34581 10.8392 4.78633 10.8392C5.22686 10.8392 5.58398 11.1916 5.58398 11.6264Z" fill="#79655E"/>
<path d="M7.9769 12.4137C8.41742 12.4137 8.77454 12.0612 8.77454 11.6264C8.77454 11.1916 8.41742 10.8392 7.9769 10.8392C7.53637 10.8392 7.17926 11.1916 7.17926 11.6264C7.17926 12.0612 7.53637 12.4137 7.9769 12.4137Z" fill="#79655E"/>
<path fill-rule="evenodd" clip-rule="evenodd" d="M4.78633 1.39177C4.78633 0.95697 4.42922 0.604492 3.98869 0.604492C3.54817 0.604492 3.19105 0.95697 3.19105 1.39177H1.59577C0.71472 1.39177 0.000488281 2.09673 0.000488281 2.96634V13.9883C0.000488281 14.8579 0.714721 15.5629 1.59577 15.5629H14.358C15.2391 15.5629 15.9533 14.8579 15.9533 13.9883V2.96634C15.9533 2.09673 15.2391 1.39177 14.358 1.39177H12.7627C12.7627 0.95697 12.4056 0.604492 11.9651 0.604492C11.5246 0.604492 11.1675 0.95697 11.1675 1.39177H4.78633ZM1.59577 4.5409V2.96634H14.358V4.5409H1.59577ZM1.59577 6.11547V13.9883H9.70906L14.358 9.39969V6.11547H1.59577ZM14.358 11.6265L11.9651 13.9883H14.358V11.6265Z" fill="#79655E"/>
</svg>
