<svg width="52" height="52" viewBox="0 0 52 52" fill="none" xmlns="http://www.w3.org/2000/svg">
<path d="M13.0308 4.59407C22.6153 -1.23703 35.3499 0.0364316 43.6609 8.34742C53.4464 18.1329 53.4464 33.9506 43.6609 43.6691C33.8753 53.4547 18.0576 53.4547 8.33914 43.6691C-1.44638 33.8836 -1.44638 18.0659 8.33914 8.34742" stroke="#79655E" stroke-width="2" stroke-miterlimit="10" stroke-linecap="round" stroke-linejoin="round"/>
<path d="M25.6981 10.894V25.9745L38.9689 39.2452" stroke="#79655E" stroke-width="2" stroke-miterlimit="10" stroke-linecap="round" stroke-linejoin="round"/>
<path d="M9.86008 24.1824H13.4735V25.761H7.25793V24.3058L10.9823 21.0007C11.4921 20.5485 11.7469 20.1127 11.7469 19.6934C11.7469 19.2824 11.6236 18.9453 11.377 18.6822C11.1303 18.4191 10.8056 18.2875 10.4027 18.2875C9.9834 18.2875 9.6381 18.4273 9.36678 18.7068C9.09547 18.9782 8.96803 19.3029 8.98448 19.6811H7.25793C7.25793 19.0809 7.38948 18.5589 7.65257 18.1149C7.92389 17.6627 8.29797 17.3174 8.77482 17.079C9.25168 16.8323 9.80664 16.709 10.4397 16.709C11.0152 16.709 11.5332 16.8364 11.9936 17.0913C12.454 17.3462 12.8158 17.7038 13.0788 18.1642C13.3419 18.6164 13.4735 19.1344 13.4735 19.7181C13.4735 20.1374 13.4118 20.4909 13.2885 20.7787C13.1734 21.0664 13.0131 21.3213 12.8075 21.5433C12.6102 21.7571 12.2896 22.0572 11.8456 22.4436L9.86008 24.1824Z" fill="#79655E"/>
<path d="M18.3199 24.3921H14.4599V22.8259L17.2594 16.894H19.1832L16.3837 22.8259H18.3199V20.606H20.0218V22.8259H20.8111V24.3921H20.0218V25.7733H18.3199V24.3921Z" fill="#79655E"/>
<path d="M18.6575 31.5756H14.8591V29.9971H20.4581V31.5756L17.4859 38.8764H15.6731L18.6575 31.5756Z" fill="#79655E"/>
</svg>
