<svg width="52" height="67" viewBox="0 0 52 67" fill="none" xmlns="http://www.w3.org/2000/svg">
<path d="M7.06796 40.3203C7.06796 45.4174 7.06796 49.8672 7.06796 49.8672V62.8122V65.7248" stroke="#79655E" stroke-width="2" stroke-miterlimit="10" stroke-linecap="round" stroke-linejoin="round"/>
<path d="M7.06796 49.5437C7.06796 51.3236 5.69256 52.7799 3.91262 52.7799C2.13269 52.7799 1 51.3236 1 49.5437V40.9676C1 35.7896 5.20712 31.5825 10.3851 31.5825H16.6149" stroke="#79655E" stroke-width="2" stroke-miterlimit="10" stroke-linecap="round" stroke-linejoin="round"/>
<path d="M13.945 65.7246V52.6987" stroke="#79655E" stroke-width="2" stroke-miterlimit="10" stroke-linecap="round" stroke-linejoin="round"/>
<path d="M39.9159 13.7026C42.8285 14.5117 45.0129 17.1816 45.0129 20.4178C45.0129 24.2204 41.9385 27.3758 38.055 27.3758C36.1942 27.3758 34.576 26.6476 33.3625 25.5149" stroke="#79655E" stroke-width="2" stroke-miterlimit="10" stroke-linecap="round" stroke-linejoin="round"/>
<path d="M44.932 49.5437C44.932 51.3236 46.3074 52.7799 48.0874 52.7799C49.8673 52.7799 51 51.3236 51 49.5437V40.9676C51 35.7896 46.7929 31.5825 41.6149 31.5825H35.3851" stroke="#79655E" stroke-width="2" stroke-miterlimit="10" stroke-linecap="round" stroke-linejoin="round"/>
<path d="M44.9322 40.3203C44.9322 45.4174 44.9322 48.0064 44.9322 48.0064V50.11C44.9322 55.5307 50.1102 65.6439 50.1102 65.6439H35.1425" stroke="#79655E" stroke-width="2" stroke-miterlimit="10" stroke-linecap="round" stroke-linejoin="round"/>
<path d="M26.4854 40.0774C23.5728 40.0774 21.2265 37.7311 21.2265 34.8185C21.2265 31.9058 23.5728 29.5596 26.4854 29.5596C29.3981 29.5596 31.7443 31.9058 31.7443 34.8185C31.6634 37.7311 29.3171 40.0774 26.4854 40.0774Z" stroke="#79655E" stroke-width="2" stroke-miterlimit="10" stroke-linecap="round" stroke-linejoin="round"/>
<path d="M30.8547 65.7247V63.8638V55.6114V49.5435" stroke="#79655E" stroke-width="2" stroke-miterlimit="10" stroke-linecap="round" stroke-linejoin="round"/>
<path d="M22.0356 49.5435C22.0356 52.8606 22.0356 55.6114 22.0356 55.6114V63.8638V65.7247" stroke="#79655E" stroke-width="2" stroke-miterlimit="10" stroke-linecap="round" stroke-linejoin="round"/>
<path d="M22.0357 55.3692C22.0357 56.5019 21.1458 57.3918 20.0131 57.3918C18.8804 57.3918 18.1523 56.5019 18.1523 55.3692V49.9485C18.1523 46.6313 20.8222 43.9614 24.1393 43.9614H28.6701C31.9872 43.9614 34.6571 46.6313 34.6571 49.9485V55.3692C34.6571 56.5019 33.9289 57.3918 32.7963 57.3918C31.6636 57.3918 30.7736 56.5019 30.7736 55.3692" stroke="#79655E" stroke-width="2" stroke-miterlimit="10" stroke-linecap="round" stroke-linejoin="round"/>
<path d="M26.4854 65.7249V57.3916" stroke="#79655E" stroke-width="2" stroke-miterlimit="10" stroke-linecap="round" stroke-linejoin="round"/>
<path d="M21.8736 12.4888L25.1908 15.8869L30.6924 10.3853" stroke="#79655E" stroke-width="2" stroke-miterlimit="10" stroke-linecap="round" stroke-linejoin="round"/>
<path d="M25.9997 1C25.9997 1 20.8217 5.04531 16.4528 5.04531V15.2395C16.4528 17.343 17.3427 19.2848 18.799 20.3366C20.3363 21.4693 24.867 24.4628 25.0288 24.5437L25.9997 25.1909L26.9706 24.5437C27.1324 24.3819 31.6631 21.4693 33.2003 20.3366C34.6566 19.2848 35.5466 17.343 35.5466 15.2395V5.04531C31.1777 5.04531 25.9997 1 25.9997 1Z" stroke="#79655E" stroke-width="2" stroke-miterlimit="10" stroke-linecap="round" stroke-linejoin="round"/>
<path d="M12.0845 13.7026C9.17183 14.5117 6.98737 17.1816 6.98737 20.4178C6.98737 24.2204 10.0618 27.3758 13.9453 27.3758C15.8061 27.3758 17.4243 26.6476 18.7188 25.5149" stroke="#79655E" stroke-width="2" stroke-miterlimit="10" stroke-linecap="round" stroke-linejoin="round"/>
</svg>
