<svg width="52" height="45" viewBox="0 0 52 45" fill="none" xmlns="http://www.w3.org/2000/svg">
<path d="M35.8511 36.5469L39.7706 39.1952L41.8893 43.4325" stroke="#79655E" stroke-width="2" stroke-miterlimit="10" stroke-linecap="round"/>
<path d="M16.1476 36.5469L12.228 39.1952L10.1094 43.4325" stroke="#79655E" stroke-width="2" stroke-miterlimit="10" stroke-linecap="round"/>
<path d="M25.9995 9.53398V0" stroke="#79655E" stroke-width="2" stroke-miterlimit="10"/>
<path d="M25.9995 32.8392V19.0679" stroke="#79655E" stroke-width="2" stroke-miterlimit="10"/>
<path d="M37.2288 27.9663L35.9576 29.2375C34.3686 30.8265 32.25 31.674 29.9194 31.674H22.0804C19.8558 31.674 17.6312 30.8265 16.0422 29.2375L14.771 27.9663" stroke="#79655E" stroke-width="2" stroke-miterlimit="10"/>
<path d="M15.0889 22.1397L16.3601 20.021C17.1016 18.7498 18.4787 18.0083 19.9618 18.0083H32.1441C33.6272 18.0083 35.0043 18.7498 35.7458 20.021L37.017 22.1397" stroke="#79655E" stroke-width="2" stroke-miterlimit="10"/>
<path d="M30.4489 12.7119H21.4446C18.0548 12.7119 15.1946 15.3602 15.0887 18.856L14.559 31.4621C14.3471 36.2291 18.2666 40.2545 23.0336 40.2545H28.754C33.521 40.2545 37.4405 36.2291 37.2287 31.4621L36.699 18.856C36.699 15.3602 33.9447 12.7119 30.4489 12.7119Z" stroke="#79655E" stroke-width="2" stroke-miterlimit="10"/>
<path d="M36.5933 23.3052H42.9492" stroke="#79655E" stroke-width="2" stroke-miterlimit="10"/>
<path d="M15.4063 23.3052H9.05029" stroke="#79655E" stroke-width="2" stroke-miterlimit="10"/>
<path d="M50.9997 7.7331C42.9488 4.2373 28.8597 4.2373 28.1182 4.2373" stroke="#79655E" stroke-width="2" stroke-miterlimit="10"/>
<path d="M1 7.7331C9.05092 4.2373 23.14 4.2373 23.8815 4.2373" stroke="#79655E" stroke-width="2" stroke-miterlimit="10"/>
<path d="M30.2369 12.7119C30.2369 10.3814 28.3301 8.47461 25.9995 8.47461C23.669 8.47461 21.7622 10.3814 21.7622 12.7119" stroke="#79655E" stroke-width="2" stroke-miterlimit="10"/>
</svg>
