<svg width="444" height="100" viewBox="0 0 444 100" fill="none" xmlns="http://www.w3.org/2000/svg">
<path fill-rule="evenodd" clip-rule="evenodd" d="M180.082 17.6035H135.5C118.656 17.6035 105 31.2588 105 48.1035C105 64.9482 118.656 78.6035 135.5 78.6035H180.082V77.6035H135.5C119.208 77.6035 106 64.3959 106 48.1035C106 31.8111 119.208 18.6035 135.5 18.6035H180.082V17.6035ZM265.531 77.6035H308.5C324.793 77.6035 338 64.3959 338 48.1035C338 31.8111 324.793 18.6035 308.5 18.6035H265.531V17.6035H308.5C325.345 17.6035 339 31.2588 339 48.1035C339 64.9482 325.345 78.6035 308.5 78.6035H265.531V77.6035Z" fill="#0C0B10"/>
<rect x="0.000488281" y="26.6035" width="444" height="55" rx="27.5" fill="#0C0B10"/>
<path d="M221.267 0.603516L218.886 5.11752L216.581 9.63152C218.232 12.8009 219.692 15.5477 221.325 18.6595L226.07 9.63152L223.63 5.11752L221.267 0.603516Z" fill="#0C0B10"/>
<path d="M245.438 15.9898L245.208 15.8553L244.977 15.7017L244.728 15.5672L244.497 15.4135L244.247 15.2791L244.017 15.1446L243.786 15.0102L243.537 14.8757L243.287 14.7412L243.056 14.626L242.807 14.4915L242.557 14.3571L242.327 14.2226L242.077 14.1074L241.827 13.9729L241.577 13.8576L241.328 13.7424L241.078 13.6271L240.828 13.4927L240.694 13.4351L238.485 18.2564L238.581 18.2948L238.811 18.3909L239.023 18.5061L239.253 18.6214L239.464 18.7174L239.676 18.8327L239.906 18.9479L240.118 19.0632L240.329 19.1592L240.54 19.2744L240.771 19.4089L240.982 19.5242L241.193 19.6394L241.405 19.7547L241.616 19.8699L241.827 20.0044L242.038 20.1196L242.25 20.2349L242.461 20.3693L242.672 20.5038L242.864 20.619L245.63 16.105L245.438 15.9898Z" fill="#0C0B10"/>
<path d="M235.12 11.2834L234.851 11.2066L234.582 11.1297L234.313 11.0337L234.044 10.9568L233.775 10.8992L233.487 10.8224L233.218 10.7455L232.949 10.6687L232.68 10.6111L232.392 10.5343L232.123 10.4574L231.854 10.3998L231.566 10.3422L231.297 10.2845L231.009 10.2077L230.74 10.1501L230.452 10.1117L230.183 10.054L230.029 10.0156L229.069 15.2211L229.184 15.2403L229.434 15.298L229.684 15.3364L229.914 15.394L230.164 15.4516L230.413 15.5093L230.663 15.5669L230.894 15.6245L231.143 15.6629L231.393 15.7398L231.624 15.7974L231.873 15.855L232.123 15.9318L232.354 15.9895L232.584 16.0471L232.834 16.1239L233.064 16.2008L233.314 16.2584L233.544 16.3352L233.794 16.4121L233.89 16.4505L235.484 11.3986L235.388 11.3794L235.12 11.2834Z" fill="#0C0B10"/>
<path d="M212.505 9.99626L212.216 10.0539L211.928 10.1115L211.659 10.1499L211.371 10.2076L211.102 10.2844L210.814 10.342L210.545 10.3996L210.257 10.4573L209.988 10.5341L209.719 10.6109L209.45 10.6686L209.162 10.7454L208.893 10.8222L208.624 10.8991L208.355 10.9567L208.087 11.0335L207.818 11.1296L207.53 11.2064L207.28 11.2832L207.165 11.3216L208.759 16.3735L208.836 16.3351L209.085 16.2582L209.316 16.2006L209.546 16.1238L209.796 16.0469L210.046 15.9893L210.276 15.9317L210.526 15.8549L210.757 15.7972L211.006 15.7396L211.237 15.6628L211.486 15.6244L211.736 15.5667L211.986 15.5091L212.216 15.4515L212.466 15.3939L212.716 15.3362L212.966 15.2978L213.215 15.2402L213.446 15.2018L213.58 15.1826L212.62 9.97705L212.505 9.99626Z" fill="#0C0B10"/>
<path d="M201.841 13.3773L201.591 13.4925L201.342 13.627L201.092 13.7422L200.842 13.8575L200.592 13.9727L200.343 14.1072L200.093 14.2225L199.843 14.3569L199.613 14.4914L199.363 14.6258L199.113 14.7411L198.883 14.8755L198.633 15.01L198.403 15.1445L198.153 15.2789L197.922 15.4134L197.673 15.5671L197.442 15.7015L197.212 15.8552L197 15.9704L199.786 20.4844L199.959 20.3692L200.17 20.2347L200.362 20.1195L200.573 20.0042L200.785 19.8698L200.996 19.7545L201.226 19.6393L201.438 19.524L201.649 19.4088L201.86 19.2743L202.072 19.159L202.283 19.063L202.513 18.9478L202.725 18.8325L202.936 18.7173L203.166 18.6212L203.378 18.506L203.608 18.3907L203.82 18.2947L204.05 18.1986L204.165 18.141L201.956 13.3389L201.841 13.3773Z" fill="#0C0B10"/>
<path d="M221.922 99.3604L220.164 96.0298L218.464 92.6993C219.682 90.3609 220.76 88.3342 221.964 86.0383L225.465 92.6993L223.665 96.0298L221.922 99.3604Z" fill="#0C0B10"/>
<path d="M239.566 88.0081L239.396 88.1073L239.226 88.2207L239.042 88.3199L238.872 88.4333L238.688 88.5325L238.517 88.6317L238.347 88.7309L238.163 88.8301L237.979 88.9293L237.809 89.0144L237.625 89.1136L237.44 89.2128L237.27 89.312L237.086 89.397L236.902 89.4962L236.718 89.5813L236.533 89.6663L236.349 89.7513L236.165 89.8505L236.066 89.8931L234.436 86.3358L234.507 86.3075L234.677 86.2366L234.833 86.1516L235.003 86.0665L235.159 85.9957L235.314 85.9106L235.485 85.8256L235.64 85.7406L235.796 85.6697L235.952 85.5847L236.122 85.4855L236.278 85.4004L236.434 85.3154L236.59 85.2304L236.746 85.1453L236.902 85.0461L237.058 84.9611L237.214 84.876L237.369 84.7768L237.525 84.6776L237.667 84.5926L239.708 87.9231L239.566 88.0081Z" fill="#0C0B10"/>
<path d="M231.942 91.4806L231.744 91.5373L231.545 91.594L231.347 91.6649L231.148 91.7216L230.95 91.7641L230.737 91.8208L230.539 91.8775L230.341 91.9342L230.142 91.9767L229.93 92.0334L229.731 92.0901L229.533 92.1326L229.32 92.1751L229.122 92.2176L228.909 92.2743L228.711 92.3168L228.498 92.3452L228.3 92.3877L228.186 92.416L227.478 88.5753L227.563 88.5611L227.747 88.5186L227.931 88.4903L228.101 88.4477L228.286 88.4052L228.47 88.3627L228.654 88.3202L228.824 88.2777L229.008 88.2493L229.193 88.1926L229.363 88.1501L229.547 88.1076L229.731 88.0509L229.901 88.0084L230.071 87.9659L230.256 87.9092L230.426 87.8525L230.61 87.81L230.78 87.7533L230.964 87.6966L231.035 87.6683L232.211 91.3956L232.14 91.4098L231.942 91.4806Z" fill="#0C0B10"/>
<path d="M215.757 92.4302L215.544 92.3876L215.332 92.3451L215.133 92.3168L214.921 92.2743L214.722 92.2176L214.51 92.1751L214.311 92.1325L214.099 92.09L213.9 92.0333L213.702 91.9766L213.504 91.9341L213.291 91.8774L213.093 91.8208L212.894 91.7641L212.696 91.7215L212.497 91.6649L212.299 91.594L212.086 91.5373L211.902 91.4806L211.817 91.4523L212.993 87.7249L213.05 87.7533L213.234 87.81L213.404 87.8525L213.574 87.9092L213.759 87.9659L213.943 88.0084L214.113 88.0509L214.297 88.1076L214.467 88.1501L214.651 88.1926L214.822 88.2493L215.006 88.2777L215.19 88.3202L215.374 88.3627L215.544 88.4052L215.729 88.4477L215.913 88.4902L216.097 88.5186L216.281 88.5611L216.451 88.5894L216.551 88.6036L215.842 92.4443L215.757 92.4302Z" fill="#0C0B10"/>
<path d="M207.863 89.936L207.679 89.851L207.494 89.7518L207.31 89.6667L207.126 89.5817L206.942 89.4967L206.757 89.3975L206.573 89.3124L206.389 89.2132L206.219 89.114L206.035 89.0148L205.85 88.9298L205.68 88.8306L205.496 88.7314L205.326 88.6322L205.142 88.5329L204.972 88.4337L204.788 88.3204L204.617 88.2212L204.447 88.1078L204.292 88.0227L206.346 84.6922L206.474 84.7773L206.63 84.8765L206.772 84.9615L206.928 85.0465L207.083 85.1457L207.239 85.2308L207.409 85.3158L207.565 85.4008L207.721 85.4859L207.877 85.5851L208.033 85.6701L208.189 85.741L208.359 85.826L208.515 85.9111L208.671 85.9961L208.841 86.067L208.997 86.152L209.167 86.237L209.323 86.3079L209.493 86.3787L209.578 86.4213L207.948 89.9644L207.863 89.936Z" fill="#0C0B10"/>
</svg>
