<svg width="60" height="48" viewBox="0 0 60 48" fill="none" xmlns="http://www.w3.org/2000/svg">
<path d="M26.4912 25.5941C25.3536 26.541 24.1023 27.5825 23.6473 27.9613C23.0085 28.5123 21.7485 29.4064 20.7956 29.1749C20.2798 29.0243 21.0139 29.5926 12.9807 26.3422C12.9807 26.3422 15.0983 24.5603 15.6229 24.6069C16.1476 24.6535 19.6365 24.6493 19.6365 24.6493L28.1857 17.5914C30.8021 15.4136 34.5188 14.9685 35.3836 15.9886C36.1698 16.9388 34.5154 18.9925 32.17 21.2153L30.2053 28.167L27.9302 30.0608L26.4912 25.5941Z" stroke="#79655E" stroke-width="2" stroke-miterlimit="10" stroke-linecap="round" stroke-linejoin="round"/>
<path d="M23.0613 21.5741L21.0067 20.8672L22.9409 19.257L26.0632 19.0943" stroke="#79655E" stroke-width="2" stroke-miterlimit="10" stroke-linecap="round" stroke-linejoin="round"/>
<path d="M57.8294 19.7303C58.4535 21.2897 57.6862 23.0432 56.1097 23.6605L15.952 39.3841C14.3755 40.0014 12.6028 39.2424 11.9787 37.683L6.27546 23.4318C5.6514 21.8724 6.41866 20.119 7.99519 19.5017L48.1967 3.7609C49.7732 3.14362 51.5459 3.90255 52.1699 5.46195L57.8732 19.7132L57.8294 19.7303Z" stroke="#79655E" stroke-width="2" stroke-miterlimit="10" stroke-linecap="round" stroke-linejoin="round"/>
<path d="M46.9791 14.0081L48.1605 11.391L50.8474 18.1052" stroke="#79655E" stroke-width="2" stroke-miterlimit="10" stroke-linecap="round" stroke-linejoin="round"/>
<path d="M39.1322 7.56104L39.6002 8.73059" stroke="#79655E" stroke-width="2" stroke-miterlimit="10" stroke-linecap="round" stroke-linejoin="round"/>
<path d="M40.9686 12.1533L41.4193 13.2796" stroke="#79655E" stroke-width="2" stroke-miterlimit="10" stroke-linecap="round" stroke-linejoin="round"/>
<path d="M42.7894 16.7012L43.2575 17.8707" stroke="#79655E" stroke-width="2" stroke-miterlimit="10" stroke-linecap="round" stroke-linejoin="round"/>
<path d="M44.609 21.249L45.0771 22.4186" stroke="#79655E" stroke-width="2" stroke-miterlimit="10" stroke-linecap="round" stroke-linejoin="round"/>
<path d="M46.4458 25.8408L46.9138 27.0104" stroke="#79655E" stroke-width="2" stroke-miterlimit="10" stroke-linecap="round" stroke-linejoin="round"/>
<path d="M19.6883 14.9235L36.7554 1.87769C38.071 0.861527 39.9942 1.11058 41.0215 2.41188L43.4329 5.52617" stroke="#79655E" stroke-width="2" stroke-miterlimit="10" stroke-linecap="round" stroke-linejoin="round"/>
<path d="M30.4039 33.7262L15.7836 44.9121C14.468 45.9282 12.5448 45.6792 11.5175 44.3779L2.03716 32.2068C1.00984 30.9055 1.26163 29.0032 2.57722 27.987L6.72562 24.8095" stroke="#79655E" stroke-width="2" stroke-miterlimit="10" stroke-linecap="round" stroke-linejoin="round"/>
</svg>
