<svg width="52" height="64" viewBox="0 0 52 64" fill="none" xmlns="http://www.w3.org/2000/svg">
<path d="M30.0581 51.6871L3.66406 36.7394C3.66406 36.7394 12.2762 20.0077 25.1015 10.5347" stroke="#79655E" stroke-width="2" stroke-miterlimit="10" stroke-linecap="round" stroke-linejoin="round"/>
<path d="M28.1377 8.19722C28.2616 8.07419 28.3855 8.01268 28.5094 7.88965" stroke="#79655E" stroke-width="2" stroke-miterlimit="10" stroke-linecap="round" stroke-linejoin="round"/>
<path d="M51 55.3163C51 57.2233 34.5192 58.6996 20.7646 58.6996C7.00991 58.6996 1 57.1617 1 55.3163C1 53.4094 6.886 51.9331 20.7026 51.9331C34.5192 51.9331 51 53.4094 51 55.3163Z" stroke="#79655E" stroke-width="2" stroke-miterlimit="10" stroke-linecap="round" stroke-linejoin="round"/>
<path d="M4.15976 58.2686L2.30103 62.0209L10.7273 58.6992" stroke="#79655E" stroke-width="2" stroke-miterlimit="10" stroke-linecap="round" stroke-linejoin="round"/>
<path d="M28.8188 54.4551C28.8188 54.4551 45.5475 19.3925 47.4062 1.55362L40.343 1C40.343 1 35.3244 3.276 31.607 5.67502" stroke="#79655E" stroke-width="2" stroke-miterlimit="10" stroke-linecap="round" stroke-linejoin="round"/>
<path d="M4.65527 35.0169C4.65527 35.0169 27.3319 37.1699 41.5202 34.7094C50.5041 33.1715 39.3517 31.0186 39.3517 31.0186" stroke="#79655E" stroke-width="2" stroke-miterlimit="10" stroke-linecap="round" stroke-linejoin="round"/>
</svg>
