<svg width="18" height="12" viewBox="0 0 18 12" fill="none" xmlns="http://www.w3.org/2000/svg">
<path d="M9 1.11816C8.15395 2.807 7.47327 4.162 6.55957 5.99902L7.95313 8.77539L7.9541 8.77734L9.00195 10.8818L10.0586 8.77734L11.4414 6.00098L9 1.11816Z" stroke="#0C0B10"/>
<path d="M2 3.11816C1.51374 4.08852 1.096 4.92085 0.55957 5.99902L1.45117 7.77539L1.45117 7.77734L2.00195 8.88281L2.55664 7.77734L3.44141 6.00098L2 3.11816Z" stroke="#0C0B10"/>
<path d="M16 3.11816C15.5137 4.08852 15.096 4.92085 14.5596 5.99902L15.4512 7.77539L15.4512 7.77734L16.002 8.88281L16.5566 7.77734L17.4414 6.00098L16 3.11816Z" stroke="#0C0B10"/>
</svg>
